<svg xmlns="http://www.w3.org/2000/svg" viewBox="0 0 217.34 228.22"><defs><style>.cls-1{fill:#020202;}.cls-2{fill:#060606;}.cls-3{fill:#050505;}.cls-4{fill:#070707;}.cls-5{fill:#101010;}.cls-6{fill:#090909;}.cls-7{fill:#080808;}.cls-8{fill:#fcfcfc;}.cls-9{fill:#111;}.cls-10{fill:#d6d6d6;}.cls-11{fill:#d0d0d0;}.cls-12{fill:#d7d7d7;}.cls-13{fill:#d1d1d1;}.cls-14{fill:#181818;}.cls-15{fill:#d8d8d8;}.cls-16{fill:#dedede;}.cls-17{fill:#d4d4d4;}.cls-18{fill:#ccc;}.cls-19{fill:#cbcbcb;}.cls-20{fill:#dbdbdb;}.cls-21{fill:#cecece;}.cls-22{fill:#e0e0e0;}</style></defs><title>imgAsset 1</title><g id="Layer_2" data-name="Layer 2"><g id="Layer_1-2" data-name="Layer 1"><path class="cls-1" d="M198,90a89.53,89.53,0,0,1-90.33,89.24c-49.18-.18-89.22-40.55-89.07-89.82A89.7,89.7,0,1,1,198,90ZM63.14,134.38l-3.59,3.54.84.81a31.07,31.07,0,0,1,3.58-2.6,7.89,7.89,0,0,1,2.63-.39c-1.7,1.56-3.43,3.09-5.08,4.69a27.09,27.09,0,0,0-2,2.41l.67.65,6.27-4.22c.06.66.11,1.32.17,2l-7.28,5.95L60,148l2.51-1.14,2.42.37-4.89,4.29.68.91,3.44-2.1.22,2.09c1,0,2.36.52,3.08.05,3-1.94,5.83-4.16,8.72-6.28l.83,1.49-6.33,5.23.48.77,3.46-1.51,2.57.11c1,.15,2.15.75,2.8.37a69.65,69.65,0,0,0,6-4.19l1.6.85-4,3.69.71.91,6-3.87c.15.59.29,1.18.44,1.77-.25.39-.49.78-.73,1.17a5.15,5.15,0,0,0,1.48.42,12.82,12.82,0,0,0,2.08-.43l3.13.71,6.61-3.81,1.36,1.1-2,2.11.57.75,4.54-2.55,1.67,2.4L119.76,147l.8,1.49-5,4.14.64,1,6.72-4.28.64,1.47c.8.21,1.91.88,2.35.58,3.86-2.68,7.61-5.54,12-8.78l-2.33-.17v-2c11.31-2.31,18.53-9,20.71-20.38,1-5.33.92-10.92,1-16.39.06-8.58-1.55-16.65-8.81-22.83,6.8-6.87,6.93-15.51,6.82-24.19,0-2.12-.19-4.24-.3-6.35-.84-16.12-8.86-24.36-25-24.67-17.11-.33-34.22-.06-51.33-.13-2.87,0-4.14,1.17-4.1,4,.06,3.87,0,7.74,0,11.62,0,6.77,0,6.77,6,9.26V61.44l-4.23,1.32-2.83.54,4.83-5.09-.9-.83c-3.64,3-8,5.24-11,9l.72.87,4-2.63c.14.66.28,1.32.41,2l-4.88,5.35L66,76.82c2.63-2.93,9.13-2.79,7-9l.66-.43L76.82,70c3.61-1.69.25-3.68.24-5.53L78.22,63l2.33.08V76.49c-1.7.74-1.72,1.51,0,2.3q0,6,0,11.95l-2.59,0-.9-.16-1.17-1.12,2.41-2.94-.65-.57-1.93.93-.15-1.94L78.28,82l-.79-.77c-3.72,3-8.15,5.08-10.63,9.63l2-.82,0,2.14-2.44,3,.73.67,6.44-4.73,2,.64-9.35,7.83.88,1L70.7,98.1l2.4.35-6.88,5.93.85.87,6.82-4.82,2.43.31L66.12,109l.74,1,1.88-.8.12,1.95a21.93,21.93,0,0,0-2,2A10,10,0,0,0,68,114.42l.13,2-2.33,2.16,2.57.68a18.24,18.24,0,0,1-1.66,2.63c-1,1.15-1.54,2,.55,2.39-.3,1.14-.68,2.26-.87,3.42-.27,1.61-.39,3.25-.58,4.87a.63.63,0,0,1-.58.31c-2.49-3.43-2.67-3.4-5.8,1.19Zm3.35-54.09,1.57,2.93L66.32,85.5l.8.75c3.75-3,7.95-5.4,11.31-8.82l-.72-.93-1.94.85-.31-1.87,2.81-3.17-.9-.9Zm-.84-18.76c.44.33,1.17,1,1.27.93,3.73-3,7.4-6.15,11.08-9.25l.07-1.12-1,1L73.3,55.66l0-2.22c-.32-.55-.61-1.56-1-1.58a13.42,13.42,0,0,0-3.11.41L71.5,48c-.28-1.43-.57-2.86-.82-4.15l-3.36,1.17a26.4,26.4,0,0,1,1.85-3c.85-1,1.88-1.93,2.83-2.89l-.9-.84c-3.79,3.18-8.39,5.45-11.19,9.78,1.86-.61,3.25-1.81,4.81-2.73A7.16,7.16,0,0,1,67.35,45l-8.29,7.67L65.81,51C64,52.67,62.21,54.25,60.5,56c-1,1-1.54,2,.77,1.65l1.45,1.12c-.29.88-3.14,1.59-.16,2.67Zm1.62-22.84-.49-.87A10.82,10.82,0,0,0,59.72,43l.61.82Z"/><path class="cls-2" d="M62.2,211.68v16.13H56.3V194.12h6.35c2.08,5.21,4.22,10.6,6.37,16l.46,0V194.13h6.08v33.42c-5.87,1.25-6,1.19-8-4.1l-4.69-11.94Z"/><path class="cls-3" d="M188.73,194.05v33.64c-6.15.74-6.14.74-8.32-4.76a77.44,77.44,0,0,0-5.09-11.07v16h-5.93V194.27c6.05-1.05,6-1.05,8.15,4.42a95.1,95.1,0,0,0,5.17,11.62V194.05Z"/><path class="cls-2" d="M0,193.83c4.38,0,8.8-.46,13,.21,2,.3,3.9,2.57,5.24,4.4,1.51,2.08,0,10.3-1.75,12.28,3.32,4.81,3,12.16-.89,15.64A6.28,6.28,0,0,1,12.13,228c-4,.19-8,.07-12.13.07Zm6,28.49c2.39-.5,5-.31,6.05-1.5.87-1,.54-4.13-.46-5.31S8.06,214.32,6,213.72ZM6.13,200v7.66c5.36.39,6.14-.22,6.4-3.94C12.92,198.19,8.88,200.71,6.13,200Z"/><path class="cls-4" d="M84.8,193.86c4.3,0,8.6-.49,12.7.21,2.07.36,5.08,2.69,5.36,4.49.63,4.05,2,8.67-1.7,12.29,3.49,4.5,3.14,12-.92,15.57A6.86,6.86,0,0,1,96.33,228c-3.74.2-7.49.07-11.53.07Zm6,19.69v8.83c2.29-.55,4.73-.48,5.94-1.67.84-.81.61-3.94-.32-5C95.32,214.44,93,214.29,90.8,213.55Zm-.06-4.89c2.31-.9,4.69-1.15,5.76-2.46.9-1.11,1-4.31.17-5.06-1.28-1.13-3.74-.92-5.93-1.32Z"/><path class="cls-5" d="M122.41,215.59h-4.19v12.28H112v-34c4.55,0,9.29-.7,13.64.29,2.16.5,4.31,3.87,5.18,6.38s.19,5.68.19,8.55c0,.37.14.89,0,1.1-4.66,5-.1,9.75.27,14.6a19.08,19.08,0,0,0,.75,3.09h-6.27Zm-4.31-6.14c2.19-.3,5.64,0,6.06-1a10.48,10.48,0,0,0,.08-7.44c-.4-1-3.84-.75-6.14-1.11v9.54Z"/><path class="cls-2" d="M197.76,228V193.85c4.75,0,9.34-.11,13.92.05,2.27.08,5.62,4.15,5.63,6.57q.06,10.49,0,21c0,2.72-3.4,6.47-6,6.53C206.83,228.09,202.35,228,197.76,228Zm6.15-6.12a22.19,22.19,0,0,1,3,0c3.47.53,4.67-.88,4.4-4.35s-.06-7.22-.06-10.83c0-7,0-7-6.87-6.52-.1,0-.19.13-.46.33Z"/><path class="cls-6" d="M161.48,227.88h-6.17c-.53-2.33-1.08-4.69-1.66-7.19h-6.5c-.56,2.39-1.1,4.76-1.66,7.17h-6.22q3.45-17.07,6.81-33.62a3.7,3.7,0,0,1,.91-.36c7.55-.19,7.52-.18,9,7.18C157.78,209.93,159.62,218.79,161.48,227.88Zm-13.22-13.64h4.16l-1.6-8-.88,0C149.4,208.86,148.86,211.43,148.26,214.24Z"/><path class="cls-7" d="M48.42,227.91H42.25l-1.6-7.23H34.08l-1.6,7.2H26.24c2.29-11.34,4.54-22.51,6.82-33.84h8.53C43.84,205.22,46.1,216.4,48.42,227.91Zm-9-13.59c-.64-3.11-1.2-5.8-1.77-8.5h-.78l-1.68,8.49Z"/><path class="cls-8" d="M80.55,76.49V50.33c-6-2.49-6-2.49-6-9.26,0-3.88,0-7.75,0-11.62,0-2.83,1.23-4,4.1-4,17.11.07,34.22-.2,51.33.13,16.1.31,24.12,8.55,25,24.67.11,2.11.28,4.23.3,6.35.11,8.68,0,17.32-6.82,24.19,7.26,6.18,8.87,14.25,8.81,22.83,0,5.47.06,11.06-1,16.39-2.18,11.33-9.4,18.07-20.71,20.38-2.61.17-5.21.49-7.81.49q-24.09.08-48.17,0c-4.57,0-5.24-.75-5.3-5.52-.05-5.09-.18-10.19-.27-15.28l3.08-3.21,3.47-1.4,0-22.45,0-2.3q0-6,0-11.95ZM104.8,60.66l.1,1.76-1.17,8.1c3,0,5.32,0,7.66,0,2.9,0,6,.68,8.38-1.77l.12,1.14c3.41,2.25,5.23-1.12,7.71-2.19l.55.64c1-.71,2.81-1.28,3-2.15a55.33,55.33,0,0,0,.79-9.54c0-3.38-1.9-5.47-5.26-5.54-7.41-.16-14.83-.05-22.39-.05v4.51h1.93C105.7,57.37,105.25,59,104.8,60.66Zm1.36,37.44.7.62c-.61.59-1.21,1.2-1.84,1.76-1.36,1.21-1.34,1.47.31,2.88l.94.79c-4.23,3.17-1.28,7.47-2.45,11.75,7.66-1.49,15.23,2.17,21.8-3.13L124.28,115l.63,1c2.78-1.46,6.8-2.24,8.06-4.54a14.71,14.71,0,0,0-.41-14.29,5.91,5.91,0,0,0-4.18-2.64c-8-.25-16.07-.12-24.15-.12V98.5Z"/><path class="cls-9" d="M74,120.1c.09,5.09.22,10.19.27,15.28.06,4.77.73,5.51,5.3,5.52q24.09,0,48.17,0c2.6,0,5.2-.32,7.81-.49v2l-12,8.37-.64-1.47,6.28-5.2-.6-.86-8.05,5.24-.8-1.49,2.92-2.63a4,4,0,0,0-3.12.42c-3.31,2.37-6.54,4.87-9.74,7.4-.33.26-.27,1-.39,1.53l-1.67-2.4,8.5-6.9-.7-1L104.65,151l-1.36-1.1,6.75-5.54a3.64,3.64,0,0,0-2.92.25c-3.52,2.51-7,5.15-10.39,7.8-.22.17,0,.85,0,1.3L93.55,153l10.16-8.93c-.71,0-1.36-.29-1.68-.07-3.8,2.57-7.55,5.22-11.31,7.84-.15-.59-.29-1.18-.44-1.77l6.92-5.73-.61-.9-9,5.9-1.6-.85,4.82-4.13-.7-1-12.89,8.91-2.57-.11,9.86-7.81-.61-.92-6.86,4.24-.83-1.49,1.71-1.93-.7-.88-12.81,9-.22-2.09,8.71-6.92-.83-1L65,147.26l-2.42-.37,9.35-7.49-.8-1-4.43,2.86-.17-2,5.49-5-.79-.84-3.75,2.29c-.08-.65-.15-1.29-.23-1.94.58-.68,1.17-1.35,1.76-2l-.4-.53-2.78,1.26c.19-1.62.31-3.26.58-4.87.19-1.16.57-2.28.87-3.42Z"/><path class="cls-10" d="M78.22,63l-1.16,1.53-3.32,2.87-.66.43-6.47,4.14,4.88-5.35,1.37-1.16.67-1.31L71.84,64l-.76.6-4,2.63-.72-.87c3-3.74,7.4-5.94,11-9l.9.83L73.49,63.3l2.83-.54Z"/><path class="cls-11" d="M65.81,51l-6.75,1.64L67.35,45l0,0,3.36-1.17c.25,1.29.54,2.72.82,4.15l-1.54,0c-2.55-1.26-3.53.26-4.17,2.36A1.44,1.44,0,0,1,65.81,51Z"/><path class="cls-12" d="M69.25,52.27a13.42,13.42,0,0,1,3.11-.41c.37,0,.66,1,1,1.58l-10.78,8c-3-1.08-.13-1.79.16-2.67,1.91-1.33,3.89-2.59,5.69-4,.51-.41.52-1.44.76-2.18Z"/><path class="cls-13" d="M67.35,45a7.16,7.16,0,0,0-2.63.39c-1.56.92-2.95,2.12-4.81,2.73,2.8-4.33,7.4-6.6,11.19-9.78l.9.84c-1,1-2,1.85-2.83,2.89a26.4,26.4,0,0,0-1.85,3Z"/><path class="cls-10" d="M75.74,86.85l1.93-.93.65.57-2.41,2.94-2.4,1.67-6.44,4.73-.73-.67,2.44-3Z"/><path class="cls-13" d="M74,120.1l-6.77,4.14c-2.09-.37-1.56-1.24-.55-2.39a18.24,18.24,0,0,0,1.66-2.63l0,0c.7.11,1.59.54,2.07.27,1.75-1,3.37-2.29,5-3.46l-.1.15.7-.55,1,.66c0,.2,0,.39-.06.58Z"/><path class="cls-14" d="M66.61,71.93l6.47-4.14c2.09,6.24-4.41,6.1-7,9Z"/><path class="cls-15" d="M87.6,149.34l9-5.9.61.9-6.92,5.73-6,3.87-.71-.91Z"/><path class="cls-16" d="M69.25,52.27l-.08.22-7.9,5.11C59,58,59.52,56.93,60.5,56c1.71-1.7,3.53-3.28,5.31-4.91a1.44,1.44,0,0,0,0-.62L70,48.06l1.54,0Z"/><path class="cls-17" d="M90.72,151.84c3.76-2.62,7.51-5.27,11.31-7.84.32-.22,1,0,1.68.07L93.55,153a12.82,12.82,0,0,1-2.08.43A5.15,5.15,0,0,1,90,153C90.23,152.62,90.47,152.23,90.72,151.84Z"/><path class="cls-10" d="M64.42,152.45l12.81-9,.7.88-1.71,1.93c-2.89,2.12-5.72,4.34-8.72,6.28C66.78,153,65.46,152.49,64.42,152.45Z"/><path class="cls-18" d="M120.56,148.48l8.05-5.24.6.86-6.28,5.2-6.72,4.28-.64-1Z"/><path class="cls-19" d="M67.45,135.77l3.75-2.29.79.84-5.49,5-6.27,4.22-.67-.65a27.09,27.09,0,0,1,2-2.41c1.65-1.6,3.38-3.13,5.08-4.69h0Z"/><path class="cls-12" d="M77.23,152.31l12.89-8.91.7,1L86,148.49a69.65,69.65,0,0,1-6,4.19C79.38,153.06,78.18,152.46,77.23,152.31Z"/><path class="cls-15" d="M77.05,147.71l6.86-4.24.61.92-9.86,7.81-3.46,1.51-.48-.77Z"/><path class="cls-17" d="M96.68,153.71c0-.45-.17-1.13,0-1.3,3.43-2.65,6.87-5.29,10.39-7.8a3.64,3.64,0,0,1,2.92-.25l-6.75,5.54Z"/><path class="cls-11" d="M68.74,109.15l-1.88.8-.74-1,10.2-8.26.78-.58c2.48,1.89-.64,2.2-.93,3.31l-4.32,4.58h0Z"/><path class="cls-12" d="M109.43,153.71c.12-.52.06-1.27.39-1.53,3.2-2.53,6.43-5,9.74-7.4a4,4,0,0,1,3.12-.42L119.76,147Z"/><path class="cls-12" d="M104.65,151l10.91-7.59.7,1-8.5,6.9-4.54,2.55-.57-.75Z"/><path class="cls-15" d="M77.08,90.55l.9.16c-.12.75-.25,1.51-.37,2.26a.43.43,0,0,0-.39.34L70.7,98.1l-3.65,2.45-.88-1,9.35-7.83Z"/><path class="cls-15" d="M68.42,119.24l-.06,0-2.57-.68c.95-.87,1.64-1.52,2.33-2.16l9-6.7c-.2,1-.06,2.28-.65,2.83C73.89,114.87,71.11,117,68.42,119.24Z"/><path class="cls-12" d="M73.3,55.66l3.75-2.57,1,.12c-3.68,3.1-7.35,6.21-11.08,9.25-.1.09-.83-.6-1.27-.93Z"/><path class="cls-15" d="M65,147.26l7.11-4.85.83,1-8.71,6.92-3.44,2.1-.68-.91Z"/><path class="cls-15" d="M123.57,150.77l12-8.37,2.33.17c-4.38,3.24-8.13,6.1-12,8.78C125.48,151.65,124.37,151,123.57,150.77Z"/><path class="cls-10" d="M75.77,77.35l1.94-.85.72.93c-3.36,3.42-7.56,5.86-11.31,8.82l-.8-.75,1.74-2.28Z"/><path class="cls-20" d="M68,114.42a10,10,0,0,1-1.18-1.28,21.93,21.93,0,0,1,2-2l3-3h0l5.23-3.13v2.53Z"/><path class="cls-15" d="M66.49,80.29l10.88-8.88.9.9-2.81,3.17a34.3,34.3,0,0,1-3.3,2.19C70.32,78.63,68.39,79.42,66.49,80.29Z"/><path class="cls-17" d="M73.89,100.43l-6.82,4.82-.85-.87,6.88-5.93,5.15-2.59-2.36,3.06Z"/><path class="cls-21" d="M68.82,90l-2,.82c2.48-4.55,6.91-6.66,10.63-9.63l.79.77-2.69,2.93Z"/><path class="cls-15" d="M66.67,141.25l4.43-2.86.8,1-9.35,7.49L60,148l-.65-.83Z"/><path class="cls-14" d="M66.49,80.29c1.9-.87,3.83-1.66,5.67-2.62a34.3,34.3,0,0,0,3.3-2.19c.11.62.21,1.24.31,1.87l-7.71,5.87Z"/><path class="cls-14" d="M68,114.42l9.1-7v2.23l-9,6.7Z"/><path class="cls-14" d="M73.3,55.66l-7.65,5.87-3.09-.14,10.78-8Z"/><path class="cls-21" d="M65.8,132.53l2.78-1.26.4.53c-.59.68-1.18,1.35-1.76,2l-.66,1.91h0a7.89,7.89,0,0,0-2.63.39,31.07,31.07,0,0,0-3.58,2.6l-.84-.81,3.59-3.54,2.08-1.54A.63.63,0,0,0,65.8,132.53Z"/><path class="cls-12" d="M67.27,38.69l-6.94,5.13L59.72,43a10.82,10.82,0,0,1,7.06-5.18Z"/><path class="cls-14" d="M61.27,57.6l7.9-5.11c-.24.74-.25,1.77-.76,2.18-1.8,1.46-3.78,2.72-5.69,4Z"/><path class="cls-14" d="M68.82,90l6.77-5.11.15,1.94-7,5.31Z"/><path class="cls-14" d="M78.25,95.86,73.1,98.45l-2.4-.35,6.52-4.78C77.56,94.17,77.91,95,78.25,95.86Z"/><path class="cls-9" d="M65.22,132.84l-2.08,1.54L59.42,134C62.55,129.44,62.73,129.41,65.22,132.84Z"/><path class="cls-14" d="M73.74,67.36l3.32-2.87c0,1.85,3.37,3.84-.24,5.53Z"/><path class="cls-14" d="M77.61,93c.12-.75.25-1.51.37-2.26l2.59,0,0,2.3Z"/><path class="cls-14" d="M78.22,63l-1.9-.2,4.23-1.32V63Z"/><path class="cls-14" d="M71.84,108.05l-3,3-.12-1.95Z"/><path class="cls-14" d="M73.89,100.43l2-1.51c.41.41.81.83,1.21,1.24l-.78.58Z"/><path class="cls-14" d="M77.08,90.55l-1.56,1.19-2-.64,2.4-1.67Z"/><path class="cls-14" d="M80.55,76.49l0,2.3C78.83,78,78.85,77.23,80.55,76.49Z"/><path class="cls-14" d="M72.86,65.42l-1.37,1.16-.41-2,.76-.6Z"/><path class="cls-14" d="M78,53.21l-1-.12,1-1Z"/><path class="cls-9" d="M106.16,98.1l-1.93.4V94.43c8.08,0,16.12-.13,24.15.12a5.91,5.91,0,0,1,4.18,2.64,14.71,14.71,0,0,1,.41,14.29c-1.26,2.3-5.28,3.08-8.06,4.54l-.63-1,1.34-2.25c-6.57,5.3-14.14,1.64-21.8,3.13,1.17-4.28-1.78-8.58,2.45-11.75l9.12-6.42-.89-1.25-9.17,6.88c-1.65-1.41-1.67-1.67-.31-2.88.63-.56,1.23-1.17,1.84-1.76l1.52-.75-.17-.49Zm1.92,7.56L109,107l12.7-9.23-1-1.36Zm19.1-7.31-1-1.28-12.36,9.14.94,1.34Zm-9.69,9.91.91,1.24,12.06-8.81-1.06-1.43Zm1.71,3.34c4.2.06,11.51-5.55,11.48-8.45Z"/><path class="cls-5" d="M119.77,68.74c-2.4,2.45-5.48,1.73-8.38,1.77-2.34,0-4.67,0-7.66,0,.42-2.92.79-5.51,1.17-8.1l11.18-7.91-.74-1.17c-3.84,1.89-7.14,4.69-10.54,7.32.45-1.64.9-3.29,1.39-5.1h-1.93V51.05c7.56,0,15-.11,22.39.05,3.36.07,5.29,2.16,5.26,5.54a55.33,55.33,0,0,1-.79,9.54c-.16.87-1.94,1.44-3,2.15l.56-1.06-1.11.42c-2.48,1.07-4.3,4.44-7.71,2.19,3.78-1.81,7.23-4,9.69-7.38l-.73-.93Zm-5.83-5.42,1,1.36,12.35-9.13-1-1.42Zm-5.44-.8.72,1.1,13-9-.93-1.37Zm8.13,3.7c4.31-.46,8.92-4.38,9.54-7.27ZM106.38,54.77l.6,1.14,2.47-1.36-.34-.79Z"/><path class="cls-1" d="M77.1,100.16c-.4-.41-.8-.83-1.21-1.24l2.36-3.06c-.34-.85-.69-1.69-1-2.54a.43.43,0,0,1,.39-.35l2.93.07,0,22.45-2.34,0-2.12.14-.7.55.1-.15c-1.66,1.17-3.28,2.43-5,3.46-.48.27-1.37-.16-2.07-.27,2.7-2.22,5.48-4.37,8-6.73.59-.55.45-1.87.65-2.83v-4.76l-.91-1.45C76.46,102.36,79.58,102.05,77.1,100.16Z"/><path class="cls-20" d="M104.8,60.66c3.4-2.63,6.7-5.43,10.54-7.32l.74,1.17L104.9,62.42Z"/><path class="cls-18" d="M119.77,68.74l9.08-7.17.73.93c-2.46,3.37-5.91,5.57-9.69,7.38Z"/><path class="cls-11" d="M105.33,103.36l9.17-6.88.89,1.25-9.12,6.42Z"/><path class="cls-14" d="M78.23,115.51l2.34,0-3.47,1.4c0-.19,0-.38.06-.58Z"/><path class="cls-1" d="M66.56,135.74l.66-1.91c.08.65.15,1.29.23,1.94Z"/><path class="cls-1" d="M72.86,65.42l-1-1.42,1.69.11Z"/><path class="cls-14" d="M70,48.06l-4.17,2.36C66.43,48.32,67.41,46.8,70,48.06Z"/><path class="cls-8" d="M78.23,115.51l-1.07.8-1-.66Z"/><path class="cls-8" d="M75.51,116.05l-.1.15Z"/><path class="cls-14" d="M76.17,103.47l.91,1.45-5.23,3.13Z"/><path class="cls-21" d="M108.08,105.66l12.68-9.27,1,1.36L109,107Z"/><path class="cls-17" d="M127.18,98.35l-12.44,9.2-.94-1.34,12.36-9.14Z"/><path class="cls-17" d="M117.49,108.26l11.91-9,1.06,1.43L118.4,109.5Z"/><path class="cls-20" d="M119.2,111.6l11.48-8.45C130.71,106.05,123.4,111.66,119.2,111.6Z"/><path class="cls-8" d="M106.16,98.1l2-.62.17.49-1.52.75Z"/><path class="cls-13" d="M113.94,63.32l12.29-9.19,1,1.42-12.35,9.13Z"/><path class="cls-22" d="M108.5,62.52l12.84-9.24.93,1.37-13,9Z"/><path class="cls-19" d="M116.63,66.22,126.17,59C125.55,61.84,120.94,65.76,116.63,66.22Z"/><path class="cls-8" d="M106.38,54.77l2.73-1,.34.79L107,55.91Z"/><path class="cls-8" d="M127.6,67.69l1.11-.42-.56,1.06Z"/></g></g></svg>